<svg xmlns="http://www.w3.org/2000/svg" width="512" height="512" viewBox="0 0 512 512">
  <defs>
    <linearGradient id="gradient" x1="0%" y1="0%" x2="100%" y2="100%">
      <stop offset="0%" style="stop-color:#4CAF50"/>
      <stop offset="50%" style="stop-color:#2196F3"/>
      <stop offset="100%" style="stop-color:#FF9800"/>
    </linearGradient>
  </defs>
  <circle cx="256" cy="256" r="248" fill="#2F4858"/>
  <circle cx="256" cy="256" r="228" fill="white"/>
  <g transform="translate(128,128) scale(1)">
    <path d="M128 0C57.6 0 0 57.6 0 128s57.6 128 128 128 128-57.6 128-128S198.4 0 128 0z" fill="url(#gradient)"/>
    <g fill="none" stroke="white" stroke-width="16" stroke-linecap="round" stroke-linejoin="round">
      <path d="M80 80l48 48-48 48M176 80l-48 48 48 48"/>
    </g>
    <circle cx="64" cy="64" r="8" fill="#4CAF50"/>
    <circle cx="192" cy="64" r="8" fill="#FF9800"/>
    <circle cx="128" cy="128" r="8" fill="#2196F3"/>
    <circle cx="64" cy="192" r="8" fill="#4CAF50"/>
    <circle cx="192" cy="192" r="8" fill="#FF9800"/>
  </g>
</svg>